<svg id="Groupe_1790" data-name="Groupe 1790" xmlns="http://www.w3.org/2000/svg" width="86.629" height="169.784" viewBox="0 0 86.629 169.784">
  <path id="Tracé_654" data-name="Tracé 654" d="M41.594,18.5C18.623,18.5,0,30.873,0,46.136c0,6.815,3.715,13.052,9.87,17.871V84.064L23.055,70.879a59.164,59.164,0,0,0,18.539,2.892c22.972,0,41.594-12.373,41.594-27.636S64.566,18.5,41.594,18.5Z" transform="translate(0 -14.08)" fill="#fff"/>
  <path id="Tracé_655" data-name="Tracé 655" d="M55.094.5C32.123.5,13.5,12.873,13.5,28.136c0,6.815,3.715,13.052,9.87,17.871V66.064L36.555,52.879a59.164,59.164,0,0,0,18.539,2.892c22.972,0,41.594-12.373,41.594-27.636S78.066.5,55.094.5Z" transform="translate(-10.56)" fill="none" stroke="#3f3d56" stroke-miterlimit="10" stroke-width="1"/>
  <path id="Tracé_656" data-name="Tracé 656" d="M106.416,258.065s-.837-11.268-.443-13.328.764-7.927-1.4-6-1.4,6.3-1.4,6.3-2.055,11.908-.154,13.524S106.416,258.065,106.416,258.065Z" transform="translate(-79.955 -186.056)" fill="#e3b2b9"/>
  <path id="Tracé_657" data-name="Tracé 657" d="M106.719,335.2s-6.447-5.75-6.1-10.629c0,0,3.833-2.962,4.7-1.394s7.2,7.686,6.128,9.767S106.719,335.2,106.719,335.2Z" transform="translate(-78.698 -252.051)" fill="#2d3136"/>
  <path id="Tracé_658" data-name="Tracé 658" d="M233.486,265.609s3.833-10.629,4.007-12.719,1.394-7.841,2.962-5.4-.349,6.447-.349,6.447-1.22,12.023-3.485,13.068S233.486,265.609,233.486,265.609Z" transform="translate(-182.639 -192.738)" fill="#e3b2b9"/>
  <path id="Tracé_659" data-name="Tracé 659" d="M178.271,577.655h10.28l.523,5.227-2.439.523s-5.75-1.742-9.06-1.219S178.271,577.655,178.271,577.655Z" transform="translate(-137.879 -451.467)" fill="#e3b2b9"/>
  <path id="Tracé_660" data-name="Tracé 660" d="M216.684,568.566s4.879-3.311,5.75-.523,4.007,12.894,2.962,13.939-2.265-.871-2.265-.871-2.091-4.356-3.659-4.53a3.632,3.632,0,0,1-2.439-1.568S221.563,571.528,216.684,568.566Z" transform="translate(-169.496 -443.075)" fill="#364481"/>
  <path id="Tracé_661" data-name="Tracé 661" d="M173.479,692.63s1.917,7.841,1.568,9.06,5.576.523,5.576.523l.349-2.265s-3.485-5.576-3.485-8.015S173.479,692.63,173.479,692.63Z" transform="translate(-135.7 -540.131)" fill="#e3b2b9"/>
  <path id="Tracé_662" data-name="Tracé 662" d="M166.761,724.873s4.7,3.485,2.265,5.227-11.5,6.273-11.5,6.273-3.311.523-.871-2.439,3.136-3.485,3.311-5.053a7.649,7.649,0,0,1,1.074-2.942S163.451,730.8,166.761,724.873Z" transform="translate(-121.839 -566.625)" fill="#364481"/>
  <path id="Tracé_663" data-name="Tracé 663" d="M138.484,520.031s-1.917,18.121,1.045,23.871,6.447,13.591,6.273,13.939,5.053-.523,5.053-2.091-5.75-17.25-5.75-17.25,2.439-20.386,4.356-21.78S138.484,520.031,138.484,520.031Z" transform="translate(-107.849 -403.6)" fill="#364481"/>
  <path id="Tracé_664" data-name="Tracé 664" d="M138.484,520.031s-1.917,18.121,1.045,23.871,6.447,13.591,6.273,13.939,5.053-.523,5.053-2.091-5.75-17.25-5.75-17.25,2.439-20.386,4.356-21.78S138.484,520.031,138.484,520.031Z" transform="translate(-107.849 -403.6)" opacity="0.1" style="isolation: isolate"/>
  <path id="Tracé_665" data-name="Tracé 665" d="M126.3,298.021a4.312,4.312,0,0,0-3.1,2.078c-.578,1.09-.615,2.547-1.534,3.33a12.766,12.766,0,0,1-1.906.942,2.936,2.936,0,0,0-1.35,2.615c.049.961.556,1.857.545,2.819A5.168,5.168,0,0,1,117.26,313l2.7.5a2.684,2.684,0,0,0,1.249.033c.466-.138.845-.522,1.316-.639a2.714,2.714,0,0,1,1.948.608,42.2,42.2,0,0,0,5.391,2.6,2.119,2.119,0,0,0,1.684.212c.43-.2.7-.667,1.1-.921.724-.453,1.634-.112,2.448.112a8.091,8.091,0,0,0,5.528-.471c-.373-.436-.862-.74-1.263-1.145a1.849,1.849,0,0,1-.621-1.557c.108-.589.615-.982.96-1.457a3.425,3.425,0,0,0,.521-2.6,4.739,4.739,0,0,0-1.243-2.352,12.376,12.376,0,0,1-1.017-1.072,7.346,7.346,0,0,1-1-3.062,4.632,4.632,0,0,0-1.348-2.858c-1.314-1.037-3.447-.684-4.983-.787C129.17,298.048,127.758,298.021,126.3,298.021Z" transform="translate(-91.724 -232.729)" fill="#364481"/>
  <path id="Tracé_666" data-name="Tracé 666" d="M97.813,452.886l3.311,8.189S85.965,477.628,94.5,479.893s11.5-1.742,16.9,1.394c0,0,2.614-4.008,2.265-6.447,0,0-7.492-1.394-11.5-1.22,0,0,10.8-9.409,11.848-9.757s4.53-5.924-.871-10.454-4.007-6.97-4.007-6.97Z" transform="translate(-71.883 -348.826)" fill="#364481"/>
  <path id="Tracé_667" data-name="Tracé 667" d="M147.727,344.294s.523,5.4-1.742,6.1,8.886.523,8.886.523a3.93,3.93,0,0,1-1.394-4.879C154.7,342.726,147.727,344.294,147.727,344.294Z" transform="translate(-113.956 -268.635)" fill="#e3b2b9"/>
  <path id="Tracé_668" data-name="Tracé 668" d="M147.727,344.294s.523,5.4-1.742,6.1,8.886.523,8.886.523a3.93,3.93,0,0,1-1.394-4.879C154.7,342.726,147.727,344.294,147.727,344.294Z" transform="translate(-113.956 -268.635)" opacity="0.1" style="isolation: isolate"/>
  <path id="Tracé_669" data-name="Tracé 669" d="M130.254,370.625s-1.046-5.4-3.136-5.053-6.272.7-6.8,1.045a23.066,23.066,0,0,1-3.31,1.063s1.045-1.237,0-1.411-4.356.7-4.7,1.394a8.013,8.013,0,0,0-1.742,4.53c0,2.439-1.046,6.621-.7,8.364a17.032,17.032,0,0,1-1.22,8.015c-1.046,2.265-.174,4.53,1.568,2.265s.871,0,2.265.174,7.666-6.273,9.409-4.7,3.485,2.614,3.833,1.742-1.394-2.439-1.394-3.136-2.788,2.265.174-3.833S124.678,373.238,130.254,370.625Z" transform="translate(-84.635 -285.557)" fill="#2d3136"/>
  <path id="Tracé_670" data-name="Tracé 670" d="M199.327,341.954l1.394.348s5.053-3.659,6.447-6.272,2.439-4.7,2.439-4.7-2.265-2.788-3.659-1.742-7.667,8.189-7.667,8.189Z" transform="translate(-155.101 -257.234)" fill="#2d3136"/>
  <circle id="Ellipse_54" data-name="Ellipse 54" cx="5.401" cy="5.401" r="5.401" transform="translate(31.582 78.383) rotate(-80.783)" fill="#e3b2b9"/>
  <path id="Tracé_671" data-name="Tracé 671" d="M151.537,314.945a4.743,4.743,0,0,1,3.3-1.085c2.071.127,3.893,1.6,5.967,1.649a2.139,2.139,0,0,1,.178-1.322,2.039,2.039,0,0,0,.38-1.014,1.238,1.238,0,0,0-.447-.733,7,7,0,0,0-4.507-1.795c-1.107-.048-3.218-.022-4.077.816C151.6,312.178,151.682,314.016,151.537,314.945Z" transform="translate(-118.536 -242.593)" fill="#364481"/>
  <circle id="Ellipse_55" data-name="Ellipse 55" cx="11.324" cy="11.324" r="11.324" transform="translate(33.21 21.958)" fill="#ff8c56"/>
  <ellipse id="Ellipse_56" data-name="Ellipse 56" cx="1.086" cy="1.422" rx="1.086" ry="1.422" transform="translate(40.681 27.593)" fill="#444053"/>
  <ellipse id="Ellipse_57" data-name="Ellipse 57" cx="1.086" cy="1.422" rx="1.086" ry="1.422" transform="translate(46.293 27.593)" fill="#444053"/>
  <path id="Tracé_672" data-name="Tracé 672" d="M186.905,148.274c0,2.042-3.411,5.482-6.853,5.482s-6.724-3.517-6.724-5.56,3.211-.175,6.653-.175S186.905,146.232,186.905,148.274Z" transform="translate(-135.583 -114.785)" fill="#3f3d56"/>
  <path id="Tracé_673" data-name="Tracé 673" d="M177.121,153.587s6.187,1.377,11.385.039c0,0,.636,0,.2.735a1.171,1.171,0,0,1-.477.446c-1,.512-4.71,2.025-10.641.1a1.166,1.166,0,0,1-.77-.789C176.75,153.861,176.78,153.622,177.121,153.587Z" transform="translate(-138.29 -119.749)" fill="#f6f8fb"/>
</svg>
