<svg xmlns="http://www.w3.org/2000/svg" xmlns:xlink="http://www.w3.org/1999/xlink" width="262" height="154" viewBox="0 0 262 154">
    <path id="Tracé_688" data-name="Tracé 688" d="M5,0H257a5.142,5.142,0,0,1,5,5.274V148.726A5.142,5.142,0,0,1,257,154H5a5.142,5.142,0,0,1-5-5.274V5.274A5.142,5.142,0,0,1,5,0Z" fill="#506ef0"/>
    <defs>
        <clipPath id="clip-path">
            <rect id="Rectangle_1645" data-name="Rectangle 1645" width="262" height="154" rx="5" transform="translate(245 143)" fill="#58dd9b"/>
        </clipPath>
        <linearGradient id="linear-gradient" x1="0.932" y1="0.055" x2="-0.011" y2="0.891" gradientUnits="objectBoundingBox">
            <stop offset="0" stop-color="#1c44ee"/>
            <stop offset="1" stop-color="#506ef0"/>
        </linearGradient>
    </defs>
    <g id="Groupe_de_masques_2" data-name="Groupe de masques 2" transform="translate(-245 -143)" clip-path="url(#clip-path)">
        <g id="Groupe_1827" data-name="Groupe 1827" transform="translate(161.374 33.695)">
            <path id="Tracé_692" data-name="Tracé 692" d="M27.141-.435,147.769-2.367c14.99-.24,26.947,12.253,26.706,27.9l-1.932,125.947c-.24,15.651-12.586,28.533-27.576,28.773L24.339,182.189c-14.99.24-26.947-12.253-26.706-27.9L-.435,28.338C-.195,12.687,12.152-.195,27.141-.435Z" transform="matrix(0.951, -0.309, 0.309, 0.951, 0, 215.989)" opacity="0.45" fill="url(#linear-gradient)"/>
            <path id="Tracé_693" data-name="Tracé 693" d="M27.141-.435,147.769-2.367c14.99-.24,26.947,12.253,26.706,27.9l-1.932,125.947c-.24,15.651-12.586,28.533-27.576,28.773L24.339,182.189c-14.99.24-26.947-12.253-26.706-27.9L-.435,28.338C-.195,12.687,12.152-.195,27.141-.435Z" transform="matrix(-0.951, 0.309, -0.309, -0.951, 431.253, 174.551)" opacity="0.45" fill="url(#linear-gradient)"/>
        </g>
    </g>
</svg>
